<mxfile host="Electron" modified="2024-05-05T23:54:50.342Z" agent="Mozilla/5.0 (Macintosh; Intel Mac OS X 10_15_7) AppleWebKit/537.36 (KHTML, like Gecko) draw.io/24.2.5 Chrome/120.0.6099.109 Electron/28.1.0 Safari/537.36" etag="nIzy1ob5iXhz0uiGtYDz" version="24.2.5" type="device">
  <diagram id="C5RBs43oDa-KdzZeNtuy" name="Page-1">
    <mxGraphModel dx="1234" dy="1096" grid="1" gridSize="10" guides="1" tooltips="1" connect="1" arrows="1" fold="1" page="1" pageScale="1" pageWidth="827" pageHeight="1169" math="0" shadow="0">
      <root>
        <mxCell id="WIyWlLk6GJQsqaUBKTNV-0" />
        <mxCell id="WIyWlLk6GJQsqaUBKTNV-1" parent="WIyWlLk6GJQsqaUBKTNV-0" />
        <mxCell id="WIyWlLk6GJQsqaUBKTNV-2" value="" style="rounded=0;html=1;jettySize=auto;orthogonalLoop=1;fontSize=11;endArrow=block;endFill=0;endSize=8;strokeWidth=1;shadow=0;labelBackgroundColor=none;edgeStyle=orthogonalEdgeStyle;exitX=0.5;exitY=1;exitDx=0;exitDy=0;" parent="WIyWlLk6GJQsqaUBKTNV-1" source="15ol_NDm5TXGfbdyo9_6-17" target="WIyWlLk6GJQsqaUBKTNV-6" edge="1">
          <mxGeometry relative="1" as="geometry">
            <mxPoint x="440" y="310" as="sourcePoint" />
          </mxGeometry>
        </mxCell>
        <mxCell id="WIyWlLk6GJQsqaUBKTNV-3" value="Default path" style="rounded=1;whiteSpace=wrap;html=1;fontSize=12;glass=0;strokeWidth=1;shadow=0;" parent="WIyWlLk6GJQsqaUBKTNV-1" vertex="1">
          <mxGeometry x="360" y="70" width="160" height="50" as="geometry" />
        </mxCell>
        <mxCell id="WIyWlLk6GJQsqaUBKTNV-4" value="C" style="rounded=0;html=1;jettySize=auto;orthogonalLoop=1;fontSize=11;endArrow=block;endFill=0;endSize=8;strokeWidth=1;shadow=0;labelBackgroundColor=none;edgeStyle=orthogonalEdgeStyle;entryX=0.431;entryY=-0.024;entryDx=0;entryDy=0;entryPerimeter=0;" parent="WIyWlLk6GJQsqaUBKTNV-1" target="15ol_NDm5TXGfbdyo9_6-5" edge="1">
          <mxGeometry y="20" relative="1" as="geometry">
            <mxPoint as="offset" />
            <mxPoint x="450" y="439.9999999999998" as="sourcePoint" />
            <mxPoint x="490" y="520" as="targetPoint" />
          </mxGeometry>
        </mxCell>
        <mxCell id="WIyWlLk6GJQsqaUBKTNV-5" value="L" style="edgeStyle=orthogonalEdgeStyle;rounded=0;html=1;jettySize=auto;orthogonalLoop=1;fontSize=11;endArrow=block;endFill=0;endSize=8;strokeWidth=1;shadow=0;labelBackgroundColor=none;entryX=0.5;entryY=0;entryDx=0;entryDy=0;" parent="WIyWlLk6GJQsqaUBKTNV-1" target="15ol_NDm5TXGfbdyo9_6-4" edge="1">
          <mxGeometry y="10" relative="1" as="geometry">
            <mxPoint as="offset" />
            <mxPoint x="499.99999999999955" y="400.0000000000002" as="sourcePoint" />
            <mxPoint x="610" y="410" as="targetPoint" />
            <Array as="points">
              <mxPoint x="700" y="401" />
            </Array>
          </mxGeometry>
        </mxCell>
        <mxCell id="WIyWlLk6GJQsqaUBKTNV-6" value="Choose Command" style="rhombus;whiteSpace=wrap;html=1;shadow=0;fontFamily=Helvetica;fontSize=12;align=center;strokeWidth=1;spacing=6;spacingTop=-4;" parent="WIyWlLk6GJQsqaUBKTNV-1" vertex="1">
          <mxGeometry x="400" y="360" width="100" height="80" as="geometry" />
        </mxCell>
        <mxCell id="15ol_NDm5TXGfbdyo9_6-1" value="Q" style="rounded=0;html=1;jettySize=auto;orthogonalLoop=1;fontSize=11;endArrow=block;endFill=0;endSize=8;strokeWidth=1;shadow=0;labelBackgroundColor=none;edgeStyle=orthogonalEdgeStyle;exitX=0;exitY=0.5;exitDx=0;exitDy=0;" edge="1" parent="WIyWlLk6GJQsqaUBKTNV-1" target="15ol_NDm5TXGfbdyo9_6-3">
          <mxGeometry y="20" relative="1" as="geometry">
            <mxPoint as="offset" />
            <mxPoint x="400" y="400" as="sourcePoint" />
            <mxPoint x="350" y="490" as="targetPoint" />
          </mxGeometry>
        </mxCell>
        <mxCell id="15ol_NDm5TXGfbdyo9_6-3" value="Ending point&lt;div&gt;&amp;nbsp;(x, y)&lt;div&gt;&lt;br&gt;&lt;div&gt;Curve point&amp;nbsp;&lt;/div&gt;&lt;div&gt;(dx, dy)&lt;/div&gt;&lt;/div&gt;&lt;/div&gt;" style="ellipse;whiteSpace=wrap;html=1;aspect=fixed;" vertex="1" parent="WIyWlLk6GJQsqaUBKTNV-1">
          <mxGeometry x="200" y="510" width="110" height="110" as="geometry" />
        </mxCell>
        <mxCell id="15ol_NDm5TXGfbdyo9_6-4" value="Ending point&lt;div&gt;&amp;nbsp;(x, y)&lt;/div&gt;" style="ellipse;whiteSpace=wrap;html=1;aspect=fixed;" vertex="1" parent="WIyWlLk6GJQsqaUBKTNV-1">
          <mxGeometry x="660" y="510" width="80" height="80" as="geometry" />
        </mxCell>
        <mxCell id="15ol_NDm5TXGfbdyo9_6-5" value="Ending point&amp;nbsp;&lt;div&gt;(x, y)&lt;div&gt;&lt;br&gt;&lt;/div&gt;&lt;div&gt;First curve point&amp;nbsp;&lt;/div&gt;&lt;div&gt;(dx1, dy1)&lt;/div&gt;&lt;div&gt;&lt;br&gt;&lt;/div&gt;&lt;div&gt;Second&amp;nbsp;&lt;span style=&quot;background-color: initial;&quot;&gt;curve point&lt;/span&gt;&lt;/div&gt;&lt;div&gt;&lt;span style=&quot;background-color: initial;&quot;&gt;&amp;nbsp;(dx2, dy2)&lt;/span&gt;&lt;/div&gt;&lt;/div&gt;" style="ellipse;whiteSpace=wrap;html=1;aspect=fixed;" vertex="1" parent="WIyWlLk6GJQsqaUBKTNV-1">
          <mxGeometry x="340" y="510" width="130" height="130" as="geometry" />
        </mxCell>
        <mxCell id="15ol_NDm5TXGfbdyo9_6-7" value="Ending point&amp;nbsp;&lt;div&gt;(x, y)&lt;div&gt;&lt;br&gt;&lt;/div&gt;&lt;div&gt;First curve point - reflection of (dx2, dy2) of previous curve&amp;nbsp;&lt;/div&gt;&lt;div&gt;(dx1, dy1)&lt;/div&gt;&lt;div&gt;&lt;br&gt;&lt;/div&gt;&lt;div&gt;Second&amp;nbsp;&lt;span style=&quot;background-color: initial;&quot;&gt;curve point&lt;/span&gt;&lt;/div&gt;&lt;div&gt;&lt;span style=&quot;background-color: initial;&quot;&gt;&amp;nbsp;(dx2, dy2)&lt;/span&gt;&lt;/div&gt;&lt;/div&gt;" style="ellipse;whiteSpace=wrap;html=1;aspect=fixed;" vertex="1" parent="WIyWlLk6GJQsqaUBKTNV-1">
          <mxGeometry x="484" y="510" width="170" height="170" as="geometry" />
        </mxCell>
        <mxCell id="15ol_NDm5TXGfbdyo9_6-9" value="T" style="rounded=0;html=1;jettySize=auto;orthogonalLoop=1;fontSize=11;endArrow=block;endFill=0;endSize=8;strokeWidth=1;shadow=0;labelBackgroundColor=none;edgeStyle=orthogonalEdgeStyle;entryX=0.727;entryY=-0.002;entryDx=0;entryDy=0;entryPerimeter=0;" edge="1" parent="WIyWlLk6GJQsqaUBKTNV-1" target="15ol_NDm5TXGfbdyo9_6-10">
          <mxGeometry y="20" relative="1" as="geometry">
            <mxPoint as="offset" />
            <mxPoint x="350" y="400" as="sourcePoint" />
            <mxPoint x="200" y="490" as="targetPoint" />
            <Array as="points">
              <mxPoint x="270" y="400" />
              <mxPoint x="270" y="390" />
              <mxPoint x="200" y="390" />
              <mxPoint x="200" y="510" />
            </Array>
          </mxGeometry>
        </mxCell>
        <mxCell id="15ol_NDm5TXGfbdyo9_6-10" value="Ending point&lt;div&gt;&amp;nbsp;(x, y)&lt;div&gt;&lt;br&gt;&lt;div&gt;Curve point - reflection of (dx, dy) from previous curve&amp;nbsp;&lt;/div&gt;&lt;div&gt;(dx, dy)&lt;/div&gt;&lt;/div&gt;&lt;/div&gt;" style="ellipse;whiteSpace=wrap;html=1;aspect=fixed;" vertex="1" parent="WIyWlLk6GJQsqaUBKTNV-1">
          <mxGeometry x="40" y="510" width="130" height="130" as="geometry" />
        </mxCell>
        <mxCell id="15ol_NDm5TXGfbdyo9_6-11" value="S" style="rounded=0;html=1;jettySize=auto;orthogonalLoop=1;fontSize=11;endArrow=block;endFill=0;endSize=8;strokeWidth=1;shadow=0;labelBackgroundColor=none;edgeStyle=orthogonalEdgeStyle;entryX=0.431;entryY=-0.024;entryDx=0;entryDy=0;entryPerimeter=0;" edge="1" parent="WIyWlLk6GJQsqaUBKTNV-1">
          <mxGeometry y="20" relative="1" as="geometry">
            <mxPoint as="offset" />
            <mxPoint x="450" y="460" as="sourcePoint" />
            <mxPoint x="536" y="517" as="targetPoint" />
          </mxGeometry>
        </mxCell>
        <mxCell id="15ol_NDm5TXGfbdyo9_6-12" value="H" style="edgeStyle=orthogonalEdgeStyle;rounded=0;html=1;jettySize=auto;orthogonalLoop=1;fontSize=11;endArrow=block;endFill=0;endSize=8;strokeWidth=1;shadow=0;labelBackgroundColor=none;entryX=0.5;entryY=0;entryDx=0;entryDy=0;" edge="1" parent="WIyWlLk6GJQsqaUBKTNV-1" target="15ol_NDm5TXGfbdyo9_6-13">
          <mxGeometry y="10" relative="1" as="geometry">
            <mxPoint as="offset" />
            <mxPoint x="589.9999999999995" y="400.0000000000002" as="sourcePoint" />
            <mxPoint x="700" y="410" as="targetPoint" />
            <Array as="points">
              <mxPoint x="790" y="401" />
              <mxPoint x="790" y="490" />
              <mxPoint x="810" y="490" />
            </Array>
          </mxGeometry>
        </mxCell>
        <mxCell id="15ol_NDm5TXGfbdyo9_6-13" value="Ending point&lt;div&gt;&amp;nbsp;(x, y)&lt;/div&gt;&lt;div&gt;y is the same as starting y&lt;/div&gt;" style="ellipse;whiteSpace=wrap;html=1;aspect=fixed;" vertex="1" parent="WIyWlLk6GJQsqaUBKTNV-1">
          <mxGeometry x="750" y="510" width="120" height="120" as="geometry" />
        </mxCell>
        <mxCell id="15ol_NDm5TXGfbdyo9_6-14" value="V" style="edgeStyle=orthogonalEdgeStyle;rounded=0;html=1;jettySize=auto;orthogonalLoop=1;fontSize=11;endArrow=block;endFill=0;endSize=8;strokeWidth=1;shadow=0;labelBackgroundColor=none;entryX=0.5;entryY=0;entryDx=0;entryDy=0;" edge="1" parent="WIyWlLk6GJQsqaUBKTNV-1" target="15ol_NDm5TXGfbdyo9_6-15">
          <mxGeometry x="-0.0014" y="10" relative="1" as="geometry">
            <mxPoint as="offset" />
            <mxPoint x="679.9999999999995" y="400.0000000000002" as="sourcePoint" />
            <mxPoint x="790" y="410" as="targetPoint" />
            <Array as="points">
              <mxPoint x="880" y="401" />
              <mxPoint x="880" y="480" />
              <mxPoint x="950" y="480" />
            </Array>
          </mxGeometry>
        </mxCell>
        <mxCell id="15ol_NDm5TXGfbdyo9_6-15" value="Ending point&lt;div&gt;&amp;nbsp;(x, y)&lt;/div&gt;&lt;div&gt;&lt;br class=&quot;Apple-interchange-newline&quot;&gt;x is the same as starting x&lt;br&gt;&lt;/div&gt;" style="ellipse;whiteSpace=wrap;html=1;aspect=fixed;" vertex="1" parent="WIyWlLk6GJQsqaUBKTNV-1">
          <mxGeometry x="890" y="510" width="120" height="120" as="geometry" />
        </mxCell>
        <mxCell id="15ol_NDm5TXGfbdyo9_6-17" value="Choose absolute or relative" style="rhombus;whiteSpace=wrap;html=1;shadow=0;fontFamily=Helvetica;fontSize=12;align=center;strokeWidth=1;spacing=6;spacingTop=-4;" vertex="1" parent="WIyWlLk6GJQsqaUBKTNV-1">
          <mxGeometry x="370" y="210" width="140" height="90" as="geometry" />
        </mxCell>
      </root>
    </mxGraphModel>
  </diagram>
</mxfile>
